<svg width="42" height="43" viewBox="0 0 42 43" fill="none" xmlns="http://www.w3.org/2000/svg">
<path d="M21 40.0143C30.9411 40.0143 39 31.7252 39 21.5C39 11.2748 30.9411 2.98572 21 2.98572C11.0589 2.98572 3 11.2748 3 21.5C3 31.7252 11.0589 40.0143 21 40.0143Z" fill="#FF4500"/>
<path d="M33 21.7007C33 19.9939 31.7682 18.6385 30.267 18.6385C29.5279 18.6385 28.8557 18.9646 28.3629 19.4919C26.4814 17.9859 23.905 17.0071 21.0376 16.8817L22.292 10.3053L26.3691 11.2841C26.4142 12.4388 27.2652 13.3675 28.3183 13.3675C29.3935 13.3675 30.267 12.3888 30.267 11.1835C30.267 9.97878 29.3935 9 28.3183 9C27.5566 9 26.8844 9.50202 26.5708 10.23L22.0235 9.15065C21.889 9.12539 21.7546 9.15065 21.6648 9.22598C21.5529 9.30131 21.4857 9.42669 21.4635 9.57735L20.0743 16.9065C17.1622 17.0071 14.5411 17.9859 12.6371 19.5172C12.1443 18.9899 11.472 18.6638 10.733 18.6638C9.20968 18.6638 8 20.044 8 21.726C8 22.9808 8.67186 24.0349 9.61305 24.5121C9.56795 24.813 9.54582 25.1143 9.54582 25.4408C9.54582 30.1593 14.4518 34 20.5002 34C26.5486 34 31.4546 30.1845 31.4546 25.4408C31.4546 25.1395 31.432 24.813 31.3874 24.5121C32.3281 24.0349 33 22.9555 33 21.7007ZM14.2276 23.8842C14.2276 22.6795 15.1011 21.7007 16.1767 21.7007C17.252 21.7007 18.1255 22.6795 18.1255 23.8842C18.1255 25.089 17.252 26.0683 16.1767 26.0683C15.1011 26.0931 14.2276 25.089 14.2276 23.8842ZM25.1373 29.6825C23.7931 31.1886 21.2393 31.2892 20.5002 31.2892C19.7386 31.2892 17.1847 31.1633 15.8627 29.6825C15.6615 29.4565 15.6615 29.1052 15.8627 28.8792C16.0644 28.6537 16.378 28.6537 16.5797 28.8792C17.4311 29.8332 19.2233 30.1593 20.5002 30.1593C21.7771 30.1593 23.5914 29.8332 24.4203 28.8792C24.622 28.6537 24.9356 28.6537 25.1373 28.8792C25.3164 29.1052 25.3164 29.4565 25.1373 29.6825ZM24.7786 26.093C23.7033 26.093 22.8298 25.1143 22.8298 23.9095C22.8298 22.7048 23.7033 21.726 24.7786 21.726C25.8542 21.726 26.7278 22.7048 26.7278 23.9095C26.7278 25.089 25.8542 26.093 24.7786 26.093Z" fill="white"/>
</svg>
